<?xml version="1.0" encoding="UTF-8"?>
<svg version="1.1" xmlns="http://www.w3.org/2000/svg" width="500" height="500">
<path d="M0 0 C165 0 330 0 500 0 C500 165 500 330 500 500 C335 500 170 500 0 500 C0 335 0 170 0 0 Z " fill="#251D3A" transform="translate(0,0)"/>
<path d="M0 0 C3.88446678 2.58964452 6.69907021 5.64814041 8.8125 9.875 C8.89622659 11.39648326 8.91980027 12.92155778 8.91015625 14.4453125 C8.90693359 15.34121094 8.90371094 16.23710938 8.90039062 17.16015625 C8.88782227 18.56587891 8.88782227 18.56587891 8.875 20 C8.87048828 20.94488281 8.86597656 21.88976562 8.86132812 22.86328125 C8.84952357 25.20058387 8.83305759 27.53776061 8.8125 29.875 C9.71871094 29.82859375 10.62492187 29.7821875 11.55859375 29.734375 C25.78592251 29.31282452 25.78592251 29.31282452 31.8125 33.875 C32.51821963 35.18808112 33.190436 36.52028284 33.8125 37.875 C34.410625 38.16375 35.00875 38.4525 35.625 38.75 C38.25297813 40.10153161 39.5389423 41.95894494 41.33984375 44.25 C42.95795763 46.03550497 44.64260289 47.25943487 46.625 48.625 C51.8989064 52.46239475 57.87006753 57.67188876 59.34765625 64.26171875 C59.375 66.4375 59.375 66.4375 58.8125 69.875 C57.8125 70.875 57.8125 70.875 54.375 71.125 C48.64384663 71.07318125 42.93178997 69.43464498 37.8125 66.875 C40.04068003 80.14577809 42.65563711 92.62302752 47.9921875 105.01074219 C51.41382192 113.01539271 53.8125 121.08762057 53.8125 129.875 C55.4625 130.205 57.1125 130.535 58.8125 130.875 C59.039375 131.7825 59.26625 132.69 59.5 133.625 C60.53192763 136.97377872 60.53192763 136.97377872 63.14453125 138.66015625 C66.24935309 141.23765842 67.94351649 144.06245501 69.8125 147.5625 C70.1520874 148.1810083 70.4916748 148.7995166 70.84155273 149.43676758 C71.52025153 150.67329659 72.19538975 151.91178756 72.86669922 153.15234375 C74.53018482 156.18217194 76.32277031 159.13976476 78.09765625 162.10546875 C78.8125 163.875 78.8125 163.875 77.8125 166.875 C74.49158998 168.58033217 72.62757216 168.875 68.8125 168.875 C71.58903182 176.84527957 75.26969803 182.75962397 80.74609375 189.12109375 C83.24292238 192.44862529 85.04970721 195.89826938 86.875 199.625 C87.22715576 200.33946289 87.57931152 201.05392578 87.94213867 201.79003906 C90.79976772 207.67799997 93.02989704 213.40654073 94.47265625 219.80078125 C96.16409459 227.22277573 98.14035225 233.43236149 103.8125 238.75 C107.98840888 243.18690319 110.8125 248.79382247 110.8125 254.875 C105.5325 254.875 100.2525 254.875 94.8125 254.875 C86.87235343 239.86195588 86.87235343 239.86195588 85.0625 232.5 C82.91343067 224.65933153 78.21410716 218.5048299 73.58984375 211.94140625 C67.8125 203.67955508 67.8125 203.67955508 67.8125 199.875 C66.91917969 199.49601562 66.91917969 199.49601562 66.0078125 199.109375 C63.5265266 197.71420357 62.38730795 196.39710509 60.6875 194.125 C59.77291016 192.91457031 59.77291016 192.91457031 58.83984375 191.6796875 C57.41094489 189.70290641 56.00970218 187.70598851 54.62890625 185.6953125 C48.57997782 176.89802254 41.8329816 169.15135982 34.38671875 161.50488281 C32.99522524 160.06418637 31.63564756 158.592812 30.28125 157.1171875 C29.24484375 156.00730469 29.24484375 156.00730469 28.1875 154.875 C27.33285156 153.946875 27.33285156 153.946875 26.4609375 153 C24.86586576 151.65632466 24.86586576 151.65632466 22.80078125 152.05078125 C19.49693864 153.42035058 17.32783278 155.35966722 14.8125 157.875 C13.90783679 160.88467326 13.90783679 160.88467326 13.8125 163.875 C13.49575425 165.21237094 13.16979936 166.54788808 12.8125 167.875 C11.1625 167.875 9.5125 167.875 7.8125 167.875 C8.07546875 168.37902344 8.3384375 168.88304687 8.609375 169.40234375 C9.88295654 172.01980191 11.03058851 174.68075044 12.17163086 177.3581543 C17.69653916 192.45134171 17.69653916 192.45134171 29.078125 202.6796875 C31.55372872 204.38584682 32.00515654 206.01410599 32.8125 208.875 C32.90234375 211.48828125 32.90234375 211.48828125 32.75 214.1875 C32.66010361 217.91820031 32.85719386 220.58835468 34.375 224 C36.27170912 228.38049488 36.17496187 232.31492354 34.8125 236.875 C32.67694305 239.39190641 31.47077409 239.76261174 28.25 240.3125 C25.8125 239.875 25.8125 239.875 24.2890625 238.23046875 C22.56394777 235.47850001 21.69226722 232.85528549 20.75 229.75 C19.51455016 225.37948629 19.51455016 225.37948629 16.8125 221.875 C15.38827091 218.47267494 14.78800401 216.20569586 15.0625 212.5 C14.48741964 204.16133483 6.99656969 199.12023601 1.14111328 193.86987305 C-2.63643074 190.4561232 -5.67263771 187.28735767 -8.1875 182.875 C-8.95513672 181.65683594 -8.95513672 181.65683594 -9.73828125 180.4140625 C-16.06759892 169.38685034 -17.3171608 156.31735379 -15.1875 143.875 C-14.54497635 141.8671136 -13.88008229 139.86617408 -13.1875 137.875 C-12.81989269 135.54682036 -12.48508419 133.2131615 -12.1875 130.875 C-11.53575446 127.05763328 -10.45951836 123.53205279 -9.1875 119.875 C-7.65704029 115.28362088 -8.22794416 110.79704772 -8.4375 106 C-8.48269775 104.96528564 -8.52789551 103.93057129 -8.57446289 102.86450195 C-8.79396877 89.92730444 -8.79396877 89.92730444 -14.1875 78.875 C-14.36925781 79.90238281 -14.55101562 80.92976563 -14.73828125 81.98828125 C-14.99107429 83.38822231 -15.24506636 84.78794717 -15.5 86.1875 C-15.63317627 86.92154053 -15.76635254 87.65558105 -15.90356445 88.41186523 C-16.67144555 92.51847712 -17.60647047 96.45069289 -18.875 100.4375 C-21.46156179 109.38889971 -20.52369638 118.78024402 -19.1875 127.875 C-19.1875 129.875 -19.1875 131.875 -19.1875 133.875 C-22.6525 134.865 -22.6525 134.865 -26.1875 135.875 C-25.5275 136.535 -24.8675 137.195 -24.1875 137.875 C-26.5625 138 -26.5625 138 -29.1875 137.875 C-31.46050621 135.60199379 -31.81969108 134.39467469 -32.5625 131.3125 C-32.77648437 130.50683594 -32.99046875 129.70117188 -33.2109375 128.87109375 C-33.18610023 125.69606273 -32.75376315 124.92501543 -31.2734375 122.25390625 C-27.61236377 114.59871713 -28.50289881 105.676086 -28.4375 97.375 C-28.40927415 95.63278375 -28.37933777 93.89059434 -28.34765625 92.1484375 C-28.2757752 87.88723262 -28.2321593 83.62645263 -28.2043457 79.36474609 C-28.19307986 77.69968767 -28.17922911 76.0346448 -28.1628418 74.36962891 C-28.13962201 72.00683953 -28.1233417 69.64411009 -28.109375 67.28125 C-28.10190247 66.57464233 -28.09442993 65.86803467 -28.08673096 65.14001465 C-28.07797316 62.09437137 -28.21561942 59.79064175 -29.1875 56.875 C-29.95906947 50.26154736 -29.95906947 50.26154736 -28.12890625 46.97265625 C-24.53317298 42.51940394 -20.1645123 39.61614637 -15.1875 36.875 C-16.24625074 33.47187262 -17.19652154 30.86146769 -19.1875 27.875 C-21.59852573 21.44559805 -22.84419453 14.0441197 -20.2421875 7.49609375 C-15.48102152 -0.63382175 -8.98606326 -3.17155174 0 0 Z " fill="#F7F4F6" transform="translate(216.1875,79.125)"/>
<path d="M0 0 C5.93076244 2.59876914 9.60404102 7.10993418 12 13 C12.97848639 18.64668188 12.06804468 23.23614032 9.2734375 28.2109375 C6.0877688 32.68650886 1.41148859 36.39080561 -4.078125 37.37109375 C-10.31183697 37.56169286 -14.22135231 35.98741191 -19 32 C-23.44600025 27.68638686 -25.08897279 23.86658191 -25.375 17.75 C-25.3140284 12.46289142 -23.33402028 9.00444827 -20 5 C-13.75792031 -0.66142111 -8.28126589 -1.00731187 0 0 Z " fill="#F5F3F4" transform="translate(198,301)"/>
<path d="M0 0 C0.53625 0.2475 1.0725 0.495 1.625 0.75 C0.9134375 1.36875 0.9134375 1.36875 0.1875 2 C-3.60863852 6.25167515 -2.59562176 12.76347177 -2.625 18.125 C-2.645625 19.05828125 -2.66625 19.9915625 -2.6875 20.953125 C-2.71803261 26.34213146 -2.35468762 30.06091264 0.625 34.75 C3.04119823 35.00030977 3.04119823 35.00030977 5.625 34.75 C9.30224468 29.23413297 8.83733037 23.30708941 8.875 16.875 C8.895625 16.00230469 8.91625 15.12960937 8.9375 14.23046875 C8.97129818 8.6115221 8.2136686 4.75021778 5.625 -0.25 C10.63916329 1.03269293 13.33337509 2.74667241 16.625 6.75 C19.5895553 12.06575434 20.53965314 16.77906208 19.625 22.75 C17.73843279 28.68682451 14.62169865 32.16541184 9.625 35.75 C6.14901505 37.48799248 2.4256247 37.20581817 -1.375 36.75 C-6.23150911 34.32174544 -9.22576373 31.0689526 -12.375 26.75 C-14.16855158 21.31222577 -14.53455671 14.76384782 -12.46875 9.39453125 C-9.78473818 4.80934439 -5.85384086 -0.61619377 0 0 Z " fill="#EBE8EB" transform="translate(243.375,345.25)"/>
<path d="M0 0 C0.99 0.33 1.98 0.66 3 1 C2.2884375 1.8353125 2.2884375 1.8353125 1.5625 2.6875 C-1.63279149 7.4165314 -1.18269235 12.90389033 -1.1875 18.4375 C-1.19974609 19.17548828 -1.21199219 19.91347656 -1.22460938 20.67382812 C-1.2387021 25.95860022 -0.3920815 30.21583701 2 35 C3.98 35 5.96 35 8 35 C10.54358422 29.08515733 11.47289869 24.34986407 11.375 17.9375 C11.38660156 17.17373047 11.39820313 16.40996094 11.41015625 15.62304688 C11.38308446 10.34855942 10.36549603 6.71298067 8 2 C7.67 1.34 7.34 0.68 7 0 C12.30145068 0.32130004 15.54960298 3.22586203 19 7 C22.03032504 12.18087829 23.05205703 17.11044707 22 23 C19.85907672 28.48886915 17.05434349 32.80778306 12 36 C7.65402177 37.44865941 3.39624753 37.88893053 -0.9375 36.28125 C-5.7781751 33.69399262 -8.62492754 30.47513042 -11.25 25.75 C-13.01878012 19.2644729 -12.57274628 13.68239602 -9.28125 7.79296875 C-6.83466528 4.36924196 -3.77577218 1.88788609 0 0 Z " fill="#EBE9EC" transform="translate(199,345)"/>
<path d="M0 0 C10.56 0 21.12 0 32 0 C32 2.97 32 5.94 32 9 C31.2265625 7.8553125 31.2265625 7.8553125 30.4375 6.6875 C28.17631601 4.1943997 27.29969055 3.50664467 24.34765625 2.33203125 C23.24292969 1.89246094 22.13820313 1.45289063 21 1 C21.11810088 5.9480849 21.2423384 10.89596276 21.37231445 15.84375 C21.41567817 17.52762642 21.4573522 19.21154723 21.49731445 20.89550781 C21.55498234 23.31328724 21.6186865 25.73084295 21.68359375 28.1484375 C21.70030624 28.9036972 21.71701874 29.65895691 21.73423767 30.43710327 C21.77555107 34.34739799 21.77555107 34.34739799 23 38 C18.38 38 13.76 38 9 38 C9.99 37.505 9.99 37.505 11 37 C11 25.12 11 13.24 11 1 C4.94129551 3.91297668 4.94129551 3.91297668 2 9 C1.34 9.66 0.68 10.32 0 11 C0 7.37 0 3.74 0 0 Z " fill="#F8F6F7" transform="translate(271,344)"/>
<path d="M0 0 C4.48370172 4.48370172 5.26383752 10.40457684 5.37890625 16.47314453 C5.37761719 17.24513184 5.37632812 18.01711914 5.375 18.8125 C5.37693359 20.00528564 5.37693359 20.00528564 5.37890625 21.22216797 C5.26871847 27.33383363 4.15141771 31.68198261 1 37 C-1.8125 37.25 -1.8125 37.25 -5 37 C-8.86109465 33.40518774 -8.95359036 29.09440412 -9.16796875 24.0390625 C-9.17983424 22.56774177 -9.18621384 21.09636801 -9.1875 19.625 C-9.19974609 18.89539063 -9.21199219 18.16578125 -9.22460938 17.4140625 C-9.23990026 11.70546426 -8.47892355 6.62172811 -5.625 1.5625 C-4 0 -4 0 0 0 Z " fill="#2D2541" transform="translate(206,344)"/>
<path d="M0 0 C3.63 0 7.26 0 11 0 C11 5.94 11 11.88 11 18 C16.63106761 15.5797509 16.63106761 15.5797509 19 13 C19 16.63 19 20.26 19 24 C18.236875 23.360625 17.47375 22.72125 16.6875 22.0625 C14.11753287 19.85767219 14.11753287 19.85767219 11 19 C11 24.61 11 30.22 11 36 C11.66 36.33 12.32 36.66 13 37 C8.05 37 3.1 37 -2 37 C-1.34 36.34 -0.68 35.68 0 35 C0.17510386 32.34708243 0.23155483 29.80013826 0.1953125 27.1484375 C0.19106766 25.98738998 0.19106766 25.98738998 0.18673706 24.80288696 C0.17552754 22.32676843 0.15042203 19.8510095 0.125 17.375 C0.11497118 15.69792188 0.10584516 14.02083811 0.09765625 12.34375 C0.07558574 8.22902777 0.04105102 4.11457489 0 0 Z " fill="#F1EFF1" transform="translate(154,345)"/>
<path d="M0 0 C3.5578125 -0.12375 3.5578125 -0.12375 7.1875 -0.25 C7.92508545 -0.28641602 8.6626709 -0.32283203 9.42260742 -0.36035156 C13.02641563 -0.42069892 14.87966133 -0.07776224 17.92578125 1.890625 C20.61364817 4.62404899 20.95794264 5.44273997 21.25 9.3125 C20.98368917 13.24058469 20.43481646 14.95647943 18 18 C12.84773591 21.51180265 5.90622689 20.10937457 0 20 C0 13.4 0 6.8 0 0 Z " fill="#28203D" transform="translate(286,391)"/>
<path d="M0 0 C4.62 0 9.24 0 14 0 C14.33 1.98 14.66 3.96 15 6 C16.1329529 7.87612568 16.1329529 7.87612568 17.5 9.625 C21.66259777 16.55070146 20.82481919 25.24077666 20.87402344 33.07983398 C20.88096947 35.0850217 20.88096947 35.0850217 22 37 C17.38 37 12.76 37 8 37 C8.66 36.34 9.32 35.68 10 35 C12.04254096 21.62213632 8.33120181 12.98987341 1 2 C0.67 1.34 0.34 0.68 0 0 Z " fill="#F6F4F5" transform="translate(313,345)"/>
<path d="M0 0 C2.206875 -0.061875 4.41375 -0.12375 6.6875 -0.1875 C8.54955078 -0.23970703 8.54955078 -0.23970703 10.44921875 -0.29296875 C14.22204963 0.01832093 16.03549505 0.69976375 19 3 C20.0625 5.375 20.0625 5.375 20 8 C18.0625 10.8125 18.0625 10.8125 16 13 C17.1678266 16.81413002 17.1678266 16.81413002 20.125 19.3125 C20.74375 19.539375 21.3625 19.76625 22 20 C21 21 21 21 18.4375 21.0625 C17.633125 21.041875 16.82875 21.02125 16 21 C15.81566406 20.43410156 15.63132813 19.86820312 15.44140625 19.28515625 C14.49257324 16.885663 13.62316133 15.0151058 12 13 C8.8376656 11.94951714 6.39014513 12 3 12 C3 14.97 3 17.94 3 21 C2.01 21 1.02 21 0 21 C0 14.07 0 7.14 0 0 Z " fill="#D7D4DA" transform="translate(192,390)"/>
<path d="M0 0 C5.01416329 1.28269293 7.70837509 2.99667241 11 7 C13.9645553 12.31575434 14.91465314 17.02906208 14 23 C12.13148702 28.88000978 9.05707749 32.55688341 4 36 C3.01 36 2.02 36 1 36 C1.32355469 34.72382813 1.64710938 33.44765625 1.98046875 32.1328125 C3.11429054 27.01006331 3.33240806 22.10683925 3.3125 16.875 C3.32861328 16.02035156 3.34472656 15.16570312 3.36132812 14.28515625 C3.36557595 8.75449358 2.53019126 4.92686318 0 0 Z " fill="#F1EFF1" transform="translate(249,345)"/>
<path d="M0 0 C0.99 0.33 1.98 0.66 3 1 C2.2884375 1.8353125 2.2884375 1.8353125 1.5625 2.6875 C-1.62221932 7.4008846 -1.15408024 12.80179485 -1.125 18.3125 C-1.12886719 19.03373047 -1.13273438 19.75496094 -1.13671875 20.49804688 C-1.12790308 25.41278418 -0.692757 30.13420677 0 35 C-3.83475164 34.78087133 -4.94164113 34.05971606 -7.6875 31.25 C-11.72424269 25.57674 -12.92206463 20.90395892 -12 14 C-10.1310615 8.06399646 -6.98825412 4.57853013 -2 1 C-1.34 0.67 -0.68 0.34 0 0 Z " fill="#F2EFF1" transform="translate(199,345)"/>
<path d="M0 0 C3.33968109 0.6692357 4.95458407 2.83580821 7.0078125 5.40234375 C6.0178125 5.73234375 5.0278125 6.06234375 4.0078125 6.40234375 C3.6365625 5.90734375 3.2653125 5.41234375 2.8828125 4.90234375 C0.26086857 2.80478861 -1.73061222 3.1849054 -4.9921875 3.40234375 C-5.3221875 4.72234375 -5.6521875 6.04234375 -5.9921875 7.40234375 C-4.9609375 7.67046875 -3.9296875 7.93859375 -2.8671875 8.21484375 C0.92078423 9.29272188 5.17098174 10.56551299 8.0078125 13.40234375 C8.3828125 15.71484375 8.3828125 15.71484375 8.0078125 18.40234375 C5.29288372 21.44635481 3.61766825 22.31363746 -0.4296875 22.90234375 C-4.63953047 22.3114886 -6.77754848 21.15774863 -9.9921875 18.40234375 C-10.8671875 16.15234375 -10.8671875 16.15234375 -10.9921875 14.40234375 C-7.9921875 15.40234375 -7.9921875 15.40234375 -6.59765625 16.953125 C-4.44018851 18.90062021 -3.16010354 18.71399227 -0.3046875 18.58984375 C0.50355469 18.56277344 1.31179688 18.53570312 2.14453125 18.5078125 C3.06685547 18.45560547 3.06685547 18.45560547 4.0078125 18.40234375 C4.3378125 17.08234375 4.6678125 15.76234375 5.0078125 14.40234375 C4.09257812 14.13679688 3.17734375 13.87125 2.234375 13.59765625 C1.04585938 13.24445313 -0.14265625 12.89125 -1.3671875 12.52734375 C-3.14222656 12.00527344 -3.14222656 12.00527344 -4.953125 11.47265625 C-7.9921875 10.40234375 -7.9921875 10.40234375 -9.9921875 8.40234375 C-9.8046875 5.40234375 -9.8046875 5.40234375 -8.9921875 2.40234375 C-5.79160021 0.26861889 -3.80959918 -0.06325903 0 0 Z " fill="#E2DFE3" transform="translate(328.9921875,389.59765625)"/>
<path d="M0 0 C3.5578125 -0.12375 3.5578125 -0.12375 7.1875 -0.25 C7.92508545 -0.28641602 8.6626709 -0.32283203 9.42260742 -0.36035156 C13.02641563 -0.42069892 14.87966133 -0.07776224 17.92578125 1.890625 C20.61364817 4.62404899 20.95794264 5.44273997 21.25 9.3125 C20.98368917 13.24058469 20.43481646 14.95647943 18 18 C12.84773591 21.51180265 5.90622689 20.10937457 0 20 C0 13.4 0 6.8 0 0 Z M2 2 C2 7.28 2 12.56 2 18 C10.04794742 18.5479643 10.04794742 18.5479643 17 15 C18.57897833 13.42102167 18.24543509 11.80637428 18.3125 9.625 C18.34988281 8.83351563 18.38726562 8.04203125 18.42578125 7.2265625 C18.17980306 4.88387528 18.17980306 4.88387528 16.37109375 3.22265625 C13.32801407 1.65348996 11.15591755 1.70143747 7.75 1.8125 C5.8525 1.874375 3.955 1.93625 2 2 Z " fill="#D9D6DC" transform="translate(286,391)"/>
<path d="M0 0 C5.61 0 11.22 0 17 0 C17 0.99 17 1.98 17 3 C12.05 3 7.1 3 2 3 C2 4.98 2 6.96 2 9 C6.62 9 11.24 9 16 9 C16 9.66 16 10.32 16 11 C11.38 11 6.76 11 2 11 C2 13.64 2 16.28 2 19 C6.95 19 11.9 19 17 19 C17 19.66 17 20.32 17 21 C11.39 21 5.78 21 0 21 C0 14.07 0 7.14 0 0 Z " fill="#DFDCE1" transform="translate(225,390)"/>
<path d="M0 0 C4.25417289 1.06354322 4.62403388 1.29622068 7.015625 4.59765625 C7.54414063 5.31630859 8.07265625 6.03496094 8.6171875 6.77539062 C9.15601563 7.53013672 9.69484375 8.28488281 10.25 9.0625 C10.80429687 9.82111328 11.35859375 10.57972656 11.9296875 11.36132812 C13.29592486 13.23401555 14.64922167 15.11613148 16 17 C16.33 11.39 16.66 5.78 17 0 C17.66 0 18.32 0 19 0 C19 6.93 19 13.86 19 21 C14.23414214 19.80853554 13.38143235 18.51055418 10.375 14.75 C9.21097656 13.31914062 9.21097656 13.31914062 8.0234375 11.859375 C6.18402546 9.26005142 5.01791067 6.99900562 4 4 C3.34 4 2.68 4 2 4 C2 9.61 2 15.22 2 21 C1.34 21 0.68 21 0 21 C0 14.07 0 7.14 0 0 Z " fill="#F0EDEF" transform="translate(254,390)"/>
<path d="M0 0 C10.56 0 21.12 0 32 0 C32 2.97 32 5.94 32 9 C31.443125 8.21625 30.88625 7.4325 30.3125 6.625 C25.21476512 0.83838203 19.67864419 1.69805856 12 1 C12 12.55 12 24.1 12 36 C11.67 36 11.34 36 11 36 C11 24.45 11 12.9 11 1 C4.94129551 3.91297668 4.94129551 3.91297668 2 9 C1.34 9.66 0.68 10.32 0 11 C0 7.37 0 3.74 0 0 Z " fill="#746F81" transform="translate(271,344)"/>
<path d="M0 0 C6.6 0 13.2 0 20 0 C20 0.99 20 1.98 20 3 C17.03 3 14.06 3 11 3 C11 8.94 11 14.88 11 21 C10.01 21 9.02 21 8 21 C8 15.06 8 9.12 8 3 C5.36 3 2.72 3 0 3 C0 2.01 0 1.02 0 0 Z " fill="#C4C0C8" transform="translate(162,390)"/>
<path d="M0 0 C2.14576637 -0.02685938 4.29162645 -0.04633088 6.4375 -0.0625 C7.63246094 -0.07410156 8.82742187 -0.08570313 10.05859375 -0.09765625 C13 0 13 0 14 1 C14.04063832 2.66617115 14.042721 4.33388095 14 6 C11.23547967 7.38226016 8.9538637 7.09525387 5.875 7.0625 C4.77929688 7.05347656 3.68359375 7.04445313 2.5546875 7.03515625 C1.29011719 7.01775391 1.29011719 7.01775391 0 7 C0 4.69 0 2.38 0 0 Z " fill="#271F3C" transform="translate(195,393)"/>
<path d="M0 0 C1 2.3125 1 2.3125 1 5 C-0.9375 7.8125 -0.9375 7.8125 -3 10 C-1.8321734 13.81413002 -1.8321734 13.81413002 1.125 16.3125 C1.74375 16.539375 2.3625 16.76625 3 17 C2 18 2 18 -0.5625 18.0625 C-1.366875 18.041875 -2.17125 18.02125 -3 18 C-4.625 15.375 -4.625 15.375 -6 12 C-5.1875 8.625 -5.1875 8.625 -4 6 C-3.34 6 -2.68 6 -2 6 C-2.33 4.35 -2.66 2.7 -3 1 C-7.29 0.67 -11.58 0.34 -16 0 C-16 -0.33 -16 -0.66 -16 -1 C-14.08496326 -1.22281874 -12.16783494 -1.42771076 -10.25 -1.625 C-9.18265625 -1.74101562 -8.1153125 -1.85703125 -7.015625 -1.9765625 C-3.93642558 -2.0004941 -2.49918193 -1.74592382 0 0 Z " fill="#CECBD2" transform="translate(211,393)"/>
<path d="M0 0 C4.29 0 8.58 0 13 0 C13 0.33 13 0.66 13 1 C9.37 1 5.74 1 2 1 C2 6.61 2 12.22 2 18 C5.3 18 8.6 18 12 18 C12 18.66 12 19.32 12 20 C8.04 20 4.08 20 0 20 C0 13.4 0 6.8 0 0 Z " fill="#F8F6F7" transform="translate(286,391)"/>
<path d="M0 0 C0.33 0 0.66 0 1 0 C1 5.94 1 11.88 1 18 C6.63106761 15.5797509 6.63106761 15.5797509 9 13 C9 16.63 9 20.26 9 24 C7.8553125 23.0409375 7.8553125 23.0409375 6.6875 22.0625 C4.11753287 19.85767219 4.11753287 19.85767219 1 19 C1 23.95 1 28.9 1 34 C0.67 34 0.34 34 0 34 C0 22.78 0 11.56 0 0 Z " fill="#B7B3BD" transform="translate(164,345)"/>
<path d="M0 0 C0.66 0 1.32 0 2 0 C2 6.93 2 13.86 2 21 C0.68 20.67 -0.64 20.34 -2 20 C-1.505 18.515 -1.505 18.515 -1 17 C-0.85596652 15.66636297 -0.75409577 14.32781954 -0.68359375 12.98828125 C-0.64169922 12.23095703 -0.59980469 11.47363281 -0.55664062 10.69335938 C-0.51732422 9.90767578 -0.47800781 9.12199219 -0.4375 8.3125 C-0.39431641 7.51521484 -0.35113281 6.71792969 -0.30664062 5.89648438 C-0.20072632 3.93118553 -0.09987449 1.96561504 0 0 Z " fill="#F5F3F5" transform="translate(271,390)"/>
<path d="M0 0 C3 1 3 1 4.39453125 2.51953125 C6.48490487 4.44715072 7.88536595 4.48444681 10.6875 4.6875 C11.49574219 4.75324219 12.30398438 4.81898438 13.13671875 4.88671875 C13.75160156 4.92410156 14.36648438 4.96148437 15 5 C14.67 5.99 14.34 6.98 14 8 C9.78473241 8.33722141 7.42210731 8.21887045 3.625 6.25 C1 4 1 4 0.125 1.75 C0.08375 1.1725 0.0425 0.595 0 0 Z " fill="#C9C6CD" transform="translate(318,404)"/>
<path d="M0 0 C3.39531723 1.13177241 4.12550184 2.03312013 6.25 4.8125 C6.79140625 5.49957031 7.3328125 6.18664062 7.890625 6.89453125 C9 9 9 9 8.671875 11.26171875 C8.45015625 11.83535156 8.2284375 12.40898437 8 13 C6.6578508 11.40320196 5.32652885 9.79729803 4 8.1875 C2.88625 6.84751953 2.88625 6.84751953 1.75 5.48046875 C0 3 0 3 0 0 Z " fill="#DFDCE0" transform="translate(260,396)"/>
<path d="M0 0 C6.75 0.75 6.75 0.75 9 3 C9.375 5.4375 9.375 5.4375 9 8 C7 9.8125 7 9.8125 5 11 C5.33 8.69 5.66 6.38 6 4 C4.02 3.01 2.04 2.02 0 1 C0 0.67 0 0.34 0 0 Z " fill="#EBE8EB" transform="translate(328,400)"/>
<path d="M0 0 C2.97 0 5.94 0 9 0 C9 2.64 9 5.28 9 8 C7.87411986 7.04270084 6.7493285 6.08412105 5.625 5.125 C4.99851563 4.59132813 4.37203125 4.05765625 3.7265625 3.5078125 C2.44163349 2.38567993 1.20628025 1.20628025 0 0 Z " fill="#EEECEE" transform="translate(169,345)"/>
<path d="M0 0 C3 1 3 1 5 4 C8.06556598 4.73343428 8.06556598 4.73343428 11 5 C11 5.99 11 6.98 11 8 C2.99061767 7.22986708 2.99061767 7.22986708 0 4 C0 2.68 0 1.36 0 0 Z " fill="#D2CFD5" transform="translate(319,394)"/>
<path d="M0 0 C0.33 0 0.66 0 1 0 C1 3.63 1 7.26 1 11 C-0.98 9.35 -2.96 7.7 -5 6 C-3.35830472 3.97945196 -1.69088222 1.97956942 0 0 Z " fill="#EFEDEF" transform="translate(172,358)"/>
<path d="M0 0 C3.3 0 6.6 0 10 0 C8.8553125 0.8971875 8.8553125 0.8971875 7.6875 1.8125 C5.6516425 3.46959332 3.8021721 5.10297674 2 7 C1.34 4.69 0.68 2.38 0 0 Z " fill="#ECE9EC" transform="translate(336,345)"/>
<path d="M0 0 C0.99 1.485 0.99 1.485 2 3 C-0.16874252 2.49396008 -1.99967627 2.00016187 -4 1 C-6.0374763 0.77141886 -8.08040303 0.58975722 -10.125 0.4375 C-11.76855469 0.31181641 -11.76855469 0.31181641 -13.4453125 0.18359375 C-14.28835938 0.12300781 -15.13140625 0.06242187 -16 0 C-16 -0.33 -16 -0.66 -16 -1 C-14.27277272 -1.22384382 -12.54303993 -1.42839969 -10.8125 -1.625 C-9.36810547 -1.79902344 -9.36810547 -1.79902344 -7.89453125 -1.9765625 C-4.6921814 -2.00249246 -2.8129769 -1.50608435 0 0 Z " fill="#C9C6CD" transform="translate(304,393)"/>
<path d="M0 0 C2.31 0 4.62 0 7 0 C7 2.64 7 5.28 7 8 C6.401875 7.236875 5.80375 6.47375 5.1875 5.6875 C3.53040668 3.6516425 1.89702326 1.8021721 0 0 Z " fill="#F1EFF1" transform="translate(296,345)"/>
<path d="M0 0 C-0.33 1.32 -0.66 2.64 -1 4 C-1.66 3.01 -2.32 2.02 -3 1 C-6.11610554 0.41407366 -6.11610554 0.41407366 -9.625 0.3125 C-10.81351563 0.24675781 -12.00203125 0.18101562 -13.2265625 0.11328125 C-14.14179688 0.07589844 -15.05703125 0.03851563 -16 0 C-16 -0.33 -16 -0.66 -16 -1 C-14.08496326 -1.22281874 -12.16783494 -1.42771076 -10.25 -1.625 C-9.18265625 -1.74101562 -8.1153125 -1.85703125 -7.015625 -1.9765625 C-3.96207601 -2.00029475 -2.53837579 -1.61420985 0 0 Z " fill="#C3C0C8" transform="translate(211,393)"/>
<path d="M0 0 C2.31 0 4.62 0 7 0 C6.02433888 1.16959987 5.044375 2.33561177 4.0625 3.5 C3.51722656 4.1496875 2.97195313 4.799375 2.41015625 5.46875 C1.94480469 5.9740625 1.47945313 6.479375 1 7 C0.67 7 0.34 7 0 7 C0 4.69 0 2.38 0 0 Z " fill="#F0EEF0" transform="translate(272,345)"/>
<path d="M0 0 C2.99332739 0.9977758 3.94766315 1.7522025 6 4 C5.67 4.99 5.34 5.98 5 7 C2.5 5.1875 2.5 5.1875 0 3 C0 2.01 0 1.02 0 0 Z " fill="#D7D4DA" transform="translate(318,404)"/>
<path d="M0 0 C3.465 1.485 3.465 1.485 7 3 C6.67 3.66 6.34 4.32 6 5 C4.35 5 2.7 5 1 5 C0.67 3.35 0.34 1.7 0 0 Z " fill="#DDDADF" transform="translate(207,406)"/>
</svg>
